# xmcd
# Copyright (C) 1995-1998 Ti Kan
#
# Track frame offsets:
#       150
#       18377
#       35636
#       52705
#       71468
#       84497
#       99648
#       116255
#       131010
#       148452
#       170419
#       184980
#
# Disc length: 2722 seconds
#
# Revision: 2
# Processed by: cddbd v1.5.1PL2 Copyright (c) Steve Scherf et al.
# Submitted via: CD-Transfer v1.0
#
DISCID=a40aa00c
DTITLE=Eric St.michaels - Songs For A New Day
DYEAR=2006
DGENRE=
TTITLE0=Get Back Up Again
TTITLE1=My Own Sweet Home
TTITLE2=What's Your Hurry
TTITLE3=Life Goes On
TTITLE4=Real Lovin'
TTITLE5=Sunday Girl
TTITLE6=Outside Looking In
TTITLE7=Do It Like That
TTITLE8=Bring That Feeling On
TTITLE9=You Won't Stand Alone
TTITLE10=Another Day Of Fun
TTITLE11=The First One You Call
EXTD=
EXTT0=
EXTT1=
EXTT2=
EXTT3=
EXTT4=
EXTT5=
EXTT6=
EXTT7=
EXTT8=
EXTT9=
EXTT10=
EXTT11=
PLAYORDER=
